<svg xmlns="http://www.w3.org/2000/svg" width="51" height="74">
      <g fill="none">
        <path
          stroke="#1837EE"
          d="M1.472 44.834c0-9.55 2.56-16.91 7.682-22.08C13.607 18.25 19.272 16 26.15 16c9.203 0 15.932 3.018 20.187 9.055 2.35 3.389 3.612 6.79 3.785 10.205h-11.43c-.741-2.623-1.694-4.602-2.857-5.938-2.078-2.375-5.158-3.562-9.24-3.562-4.156 0-7.434 1.676-9.834 5.028-2.4 3.352-3.6 8.096-3.6 14.232 0 6.135 1.268 10.73 3.804 13.786 2.536 3.055 5.758 4.583 9.667 4.583 4.008 0 7.063-1.312 9.166-3.934 1.163-1.41 2.128-3.525 2.895-6.346H50.01c-.99 5.963-3.52 10.812-7.589 14.547-4.07 3.736-9.283 5.604-15.641 5.604-7.868 0-14.052-2.524-18.555-7.57-4.503-5.072-6.754-12.024-6.754-20.856z"
        />
        <path
          fill="#FDF551"
          d="M1.472 28.834c0-9.55 2.56-16.91 7.682-22.08C13.607 2.25 19.272 0 26.15 0c9.203 0 15.932 3.018 20.187 9.055 2.35 3.389 3.612 6.79 3.785 10.205h-11.43c-.741-2.623-1.694-4.602-2.857-5.938-2.078-2.375-5.158-3.562-9.24-3.562-4.156 0-7.434 1.676-9.834 5.028-2.4 3.352-3.6 8.096-3.6 14.232 0 6.135 1.268 10.73 3.804 13.786 2.536 3.055 5.758 4.583 9.667 4.583 4.008 0 7.063-1.312 9.166-3.934 1.163-1.41 2.128-3.525 2.895-6.346H50.01c-.99 5.963-3.52 10.812-7.589 14.547-4.07 3.736-9.283 5.604-15.641 5.604-7.868 0-14.052-2.524-18.555-7.57-4.503-5.072-6.754-12.024-6.754-20.856z"
        />
      </g>
    </svg>